Coordinates
version=1
nRows=27
nColumns=12
inDegrees=yes

Units are S.I. units (second, meters, Newtons, ...)
Angles are in degrees

endheader
time	SC_y	SC_z	SC_x	AC_y	AC_z	AC_x	GH_y	GH_z	GH_yy	EL_x	PS_y
       0.0              -11.75          26.69          2.119          69.72         -16.73         -3.715           18.4          20.57          55.45          9.639          55.56
  0.009977              -11.75          26.69          2.127          69.72         -16.73         -3.715           18.4          20.58          55.47          9.655          55.58
   0.01995              -11.76          26.69          2.134          69.72         -16.72         -3.714           18.4          20.58          55.49          9.673          55.59
   0.02993              -11.76          26.69          2.143          69.72         -16.72         -3.713           18.4          20.58           55.5          9.692          55.61
   0.03991              -11.77           26.7          2.151          69.72         -16.72         -3.713           18.4          20.58          55.52          9.711          55.63
   0.04989              -11.78           26.7          2.161          69.72         -16.71         -3.712           18.4          20.58          55.55          9.733          55.64
   0.05986              -11.78           26.7           2.17          69.72         -16.71         -3.711           18.4          20.58          55.57          9.755          55.66
   0.06984              -11.79          26.71          2.181          69.71         -16.71         -3.711           18.4          20.58          55.59           9.78          55.68
   0.07982               -11.8          26.71          2.192          69.71          -16.7          -3.71          18.41          20.58          55.62          9.806          55.71
    0.0898              -11.81          26.71          2.205          69.71          -16.7         -3.709          18.41          20.58          55.65          9.833          55.73
   0.09977              -11.81          26.71          2.218          69.71          -16.7         -3.708          18.41          20.58          55.68          9.863          55.76
    0.1097              -11.82          26.72          2.232          69.71         -16.69         -3.707          18.41          20.58          55.71          9.895          55.78
    0.1197              -11.84          26.72          2.247          69.71         -16.69         -3.706          18.41          20.58          55.75           9.93          55.81
    0.1297              -11.85          26.73          2.263          69.71         -16.68         -3.705          18.41          20.59          55.79          9.968          55.85
    0.1397              -11.86          26.73          2.281           69.7         -16.68         -3.703          18.41          20.59          55.83          10.01          55.88
    0.1497              -11.87          26.74            2.3           69.7         -16.67         -3.702          18.41          20.59          55.87          10.05          55.92
    0.1596              -11.89          26.74          2.321           69.7         -16.66         -3.701          18.41          20.59          55.92           10.1          55.96
    0.1696               -11.9          26.75          2.344           69.7         -16.66         -3.699          18.42          20.59          55.97          10.15           56.0
    0.1796              -11.92          26.75          2.369           69.7         -16.65         -3.697          18.42          20.59          56.03          10.21          56.05
    0.1896              -11.94          26.76          2.396          69.69         -16.64         -3.695          18.42           20.6          56.09          10.27          56.11
    0.1995              -11.96          26.77          2.426          69.69         -16.63         -3.693          18.42           20.6          56.16          10.34          56.17
    0.2095              -11.98          26.78          2.459          69.69         -16.62         -3.691          18.42           20.6          56.24          10.41          56.23
    0.2195              -12.01          26.79          2.495          69.68         -16.61         -3.688          18.43           20.6          56.32           10.5           56.3
    0.2295              -12.04           26.8          2.535          69.68         -16.59         -3.685          18.43          20.61          56.42          10.59          56.38
    0.2395              -12.07          26.81           2.58          69.67         -16.58         -3.682          18.43          20.61          56.52          10.69          56.47
    0.2494               -12.1          26.82           2.63          69.67         -16.56         -3.678          18.43          20.61          56.64          10.81          56.57
    0.2594              -12.14          26.84          2.686          69.66         -16.54         -3.674          18.44          20.62          56.77          10.93          56.68
